<svg width="32" height="32" viewBox="0 0 32 32" fill="none" xmlns="http://www.w3.org/2000/svg">
<path fill-rule="evenodd" clip-rule="evenodd" d="M15.99 0.666504C14.3995 0.666504 12.8742 1.29831 11.7496 2.42292C10.625 3.54754 9.99317 5.07284 9.99317 6.66329V8.66222H6.66163C5.77804 8.66222 4.93065 9.01322 4.30587 9.63801C3.68108 10.2628 3.33008 11.1102 3.33008 11.9938V25.32C3.33008 26.9104 3.96188 28.4357 5.0865 29.5603C6.21111 30.6849 7.73642 31.3168 9.32687 31.3168H22.6531C24.2435 31.3168 25.7688 30.6849 26.8934 29.5603C28.018 28.4357 28.6498 26.9104 28.6498 25.32V11.9938C28.6498 11.1102 28.2988 10.2628 27.6741 9.63801C27.0493 9.01322 26.2019 8.66222 25.3183 8.66222H21.9867V6.66329C21.9867 5.07284 21.3549 3.54754 20.2303 2.42292C19.1057 1.29831 17.5804 0.666504 15.99 0.666504ZM15.99 1.99912C14.7529 1.99912 13.5666 2.49053 12.6919 3.36523C11.8172 4.23993 11.3258 5.42628 11.3258 6.66329V14.659C11.3258 14.8357 11.2556 15.0052 11.1306 15.1302C11.0057 15.2551 10.8362 15.3253 10.6595 15.3253C10.4828 15.3253 10.3133 15.2551 10.1883 15.1302C10.0634 15.0052 9.99317 14.8357 9.99317 14.659V9.99484H6.66163C6.13148 9.99484 5.62304 10.2054 5.24817 10.5803C4.8733 10.9552 4.6627 11.4636 4.6627 11.9938V25.32C4.66323 26.5568 5.1548 27.7429 6.02939 28.6174C6.90397 29.492 8.09001 29.9836 9.32687 29.9841H22.6531C23.2656 29.9842 23.8721 29.8636 24.4381 29.6293C25.004 29.3949 25.5182 29.0513 25.9513 28.6182C26.3844 28.1851 26.728 27.6709 26.9624 27.105C27.1967 26.539 27.3173 25.9325 27.3172 25.32V11.9938C27.3172 11.4636 27.1066 10.9552 26.7318 10.5803C26.3569 10.2054 25.8484 9.99484 25.3183 9.99484H21.9867V14.659C21.9867 14.8357 21.9165 15.0052 21.7916 15.1302C21.6666 15.2551 21.4972 15.3253 21.3204 15.3253C21.1437 15.3253 20.9742 15.2551 20.8493 15.1302C20.7243 15.0052 20.6541 14.8357 20.6541 14.659V9.99484H13.3247C13.148 9.99484 12.9785 9.92464 12.8536 9.79968C12.7286 9.67472 12.6584 9.50525 12.6584 9.32853C12.6584 9.15181 12.7286 8.98234 12.8536 8.85738C12.9785 8.73242 13.148 8.66222 13.3247 8.66222H20.6541V6.66329C20.6541 5.42628 20.1627 4.23993 19.288 3.36523C18.4133 2.49053 17.227 1.99912 15.99 1.99912Z" fill="white"/>
</svg>
