<svg width="33" height="27" viewBox="0 0 33 27" fill="none" xmlns="http://www.w3.org/2000/svg">
<path d="M11.788 23.6518L12.2255 23.0513L11.788 23.6518ZM16.1009 3.99783L15.5848 4.5319C15.8824 4.81962 16.3514 4.81962 16.6378 4.5319L16.1009 3.99783ZM21.178 23.6518L21.6388 24.2523L21.178 23.6518ZM11.788 23.6518L12.2255 23.0513C9.87305 21.3176 7.23418 19.5769 5.12956 17.375C3.05119 15.2005 1.56615 12.6436 1.50169 9.3274H0.751691H0.00169055C0.0757719 13.1383 1.80251 16.0439 4.05446 18.3999C6.28016 20.7286 9.09017 22.5865 11.3505 24.2523L11.788 23.6518ZM0.751691 9.3274H1.50169C1.43831 6.06676 3.32794 3.28923 6.02857 2.10847C8.69157 0.944174 12.2407 1.29853 15.5848 4.5319L16.1009 3.99783L16.617 3.46376C12.8745 -0.154762 8.67967 -0.699154 5.40509 0.732538C2.16816 2.14777 -0.0734703 5.46098 0.00169055 9.3274H0.751691ZM11.788 23.6518L11.3505 24.2523C12.1576 24.8471 12.9972 25.4608 13.8382 25.922C14.6798 26.3834 15.5895 26.7306 16.5428 26.7306L16.5283 25.9808L16.5137 25.2309C15.9217 25.2309 15.2751 25.0134 14.5399 24.6103C13.8041 24.2068 13.0461 23.656 12.2255 23.0513L11.788 23.6518ZM21.178 23.6518L21.6388 24.2523C23.8344 22.5865 26.5722 20.7286 28.7073 18.3999C30.8677 16.0439 32.4815 13.1383 32.4074 9.3274H31.6574H30.9074C30.9718 12.6436 29.5862 15.2005 27.5924 17.375C25.5734 19.5769 23.0022 21.3176 20.7171 23.0513L21.178 23.6518ZM31.6574 9.3274H32.4074C32.3322 5.46098 29.9618 2.14777 26.6698 0.732538C23.3396 -0.699154 19.1659 -0.154762 15.5641 3.46376L16.1009 3.99783L16.6378 4.5319C19.8562 1.29853 23.3916 0.944174 26.0998 2.10847C28.8464 3.28923 30.844 6.06676 30.9074 9.3274H31.6574ZM21.178 23.6518L20.7171 23.0513C19.92 23.656 19.1835 24.2068 18.4633 24.6103C17.7438 25.0134 17.1057 25.2309 16.5137 25.2309L16.5283 25.9808L16.5428 26.7306C17.4961 26.7306 18.3923 26.3834 19.216 25.922C20.0391 25.4608 20.8548 24.8471 21.6388 24.2523L21.178 23.6518Z" fill="white"/>
</svg>
