<svg width="28" height="28" viewBox="0 0 28 28" fill="none" xmlns="http://www.w3.org/2000/svg">
<rect width="28" height="28" rx="14" fill="#090909"/>
<path d="M19.3148 9.27124C18.6256 8.55223 17.712 8.11339 16.7391 8.03399C15.7661 7.95459 14.7979 8.23985 14.0095 8.83826C13.1822 8.19803 12.1526 7.90771 11.1279 8.02578C10.1032 8.14385 9.1595 8.66154 8.48693 9.47459C7.81436 10.2876 7.46282 11.3357 7.50312 12.4076C7.54341 13.4796 7.97255 14.4958 8.7041 15.2517L12.7416 19.4597C13.0797 19.806 13.5351 20 14.0095 20C14.4838 20 14.9392 19.806 15.2773 19.4597L19.3148 15.2517C20.0739 14.457 20.5 13.382 20.5 12.2615C20.5 11.141 20.0739 10.066 19.3148 9.27124ZM18.3981 14.3181L14.3605 18.5193C14.3146 18.5676 14.2599 18.6059 14.1997 18.6321C14.1394 18.6582 14.0747 18.6717 14.0095 18.6717C13.9442 18.6717 13.8795 18.6582 13.8193 18.6321C13.759 18.6059 13.7043 18.5676 13.6584 18.5193L9.62084 14.2978C9.11095 13.7555 8.82543 13.027 8.82543 12.2682C8.82543 11.5095 9.11095 10.781 9.62084 10.2387C10.1404 9.70489 10.8412 9.40558 11.5713 9.40558C12.3015 9.40558 13.0022 9.70489 13.5218 10.2387C13.5823 10.3021 13.6542 10.3524 13.7334 10.3868C13.8126 10.4211 13.8976 10.4388 13.9834 10.4388C14.0693 10.4388 14.1543 10.4211 14.2335 10.3868C14.3127 10.3524 14.3846 10.3021 14.4451 10.2387C14.9646 9.70489 15.6654 9.40558 16.3956 9.40558C17.1257 9.40558 17.8265 9.70489 18.3461 10.2387C18.8629 10.7739 19.1578 11.4985 19.1676 12.2572C19.1773 13.0159 18.9011 13.7484 18.3981 14.2978V14.3181Z" fill="white"/>
</svg>
