<svg width="28" height="28" viewBox="0 0 28 28" fill="none" xmlns="http://www.w3.org/2000/svg">
<rect width="28" height="28" rx="14" fill="#090909"/>
<path d="M13.1109 8.76855C12.5257 8.28827 11.8163 8.0198 11.083 8.00105C10.3497 7.98231 9.6295 8.21424 9.02413 8.66408C7.18791 10.0282 6.97407 12.8829 8.58311 14.5513L13.72 19.878C13.7955 19.9563 13.896 20 14.0004 20C14.1049 20 14.2053 19.9563 14.2809 19.878L19.4168 14.552C21.0262 12.8829 20.812 10.0282 18.9754 8.66408C18.3699 8.21423 17.6495 7.98239 16.9161 8.00132C16.1826 8.02026 15.4732 8.28902 14.888 8.76961L14.0004 9.49845L13.1109 8.76855Z" fill="white"/>
</svg>
