<svg width="32" height="32" viewBox="0 0 32 32" fill="none" xmlns="http://www.w3.org/2000/svg">
<path fill-rule="evenodd" clip-rule="evenodd" d="M15.9915 16.6579H17.3241C20.3283 16.6579 23.2095 17.8513 25.3337 19.9756C27.458 22.0999 28.6514 24.981 28.6514 27.9852V29.3178C28.6514 29.4945 28.5812 29.664 28.4563 29.789C28.3313 29.9139 28.1618 29.9841 27.9851 29.9841H3.99795C3.82124 29.9841 3.65176 29.9139 3.5268 29.789C3.40184 29.664 3.33164 29.4945 3.33164 29.3178V27.9852C3.33168 25.7152 4.01375 23.4976 5.28941 21.6199C6.56507 19.7422 8.37547 18.2911 10.4858 17.4548C10.6502 17.3897 10.7819 17.262 10.8521 17.0997C10.9222 16.9375 10.9251 16.754 10.8599 16.5896C10.7948 16.4253 10.6671 16.2935 10.5048 16.2234C10.3426 16.1532 10.1591 16.1504 9.99474 16.2155C7.63596 17.1501 5.61245 18.7719 4.18671 20.8706C2.76096 22.9693 1.99878 25.448 1.99902 27.9852V29.3178C1.99902 29.848 2.20962 30.3564 2.5845 30.7313C2.95937 31.1061 3.4678 31.3168 3.99795 31.3168H27.9851C28.5152 31.3168 29.0237 31.1061 29.3986 30.7313C29.7734 30.3564 29.984 29.848 29.984 29.3178V27.9852C29.984 25.0856 28.9886 22.2739 27.1643 20.0202C25.34 17.7664 22.7974 16.2072 19.9614 15.6032C21.1845 14.9035 22.201 13.8931 22.9079 12.6742C23.6149 11.4553 23.9872 10.0713 23.9872 8.66222C23.9872 4.24925 20.4045 0.666504 15.9915 0.666504C11.5786 0.666504 7.99581 4.24925 7.99581 8.66222C7.99581 13.0752 11.5786 16.6579 15.9915 16.6579ZM15.9915 1.99912C19.6689 1.99912 22.6546 4.98486 22.6546 8.66222C22.6546 12.3396 19.6689 15.3253 15.9915 15.3253C12.3142 15.3253 9.32843 12.3396 9.32843 8.66222C9.32843 4.98486 12.3142 1.99912 15.9915 1.99912Z" fill="white"/>
</svg>
