<svg width="31" height="31" viewBox="0 0 31 31" fill="none" xmlns="http://www.w3.org/2000/svg">
<path fill-rule="evenodd" clip-rule="evenodd" d="M20.6183 22.5026L22.5739 24.4582L23.045 24.9293L23.5161 25.4004L27.0428 28.9272C27.1658 29.0544 27.3128 29.156 27.4754 29.2258C27.638 29.2957 27.8129 29.3324 27.9898 29.334C28.1667 29.3355 28.3422 29.3018 28.506 29.2348C28.6698 29.1678 28.8186 29.0688 28.9437 28.9437C29.0688 28.8186 29.1678 28.6698 29.2348 28.506C29.3018 28.3422 29.3355 28.1667 29.3339 27.9898C29.3324 27.8129 29.2956 27.638 29.2258 27.4754C29.156 27.3128 29.0544 27.1658 28.9272 27.0428L25.4004 23.5161L24.9293 23.045L24.4582 22.5739L23.8699 21.9849C23.7485 21.8592 23.6813 21.6909 23.6829 21.5162C23.6844 21.3415 23.7545 21.1744 23.878 21.0508C24.0015 20.9273 24.1686 20.8572 24.3434 20.8557C24.5181 20.8542 24.6864 20.9214 24.812 21.0427L29.8693 26.1007C30.9094 27.1408 30.9094 28.8292 29.8693 29.8693C28.8292 30.9094 27.1408 30.9094 26.1007 29.8693L19.5262 23.2955C17.5479 24.5762 15.1899 25.3198 12.6599 25.3198C5.67296 25.3198 0 19.6468 0 12.6599C0 5.67296 5.67296 0 12.6599 0C19.6468 0 25.3198 5.67296 25.3198 12.6599C25.3198 16.6331 23.4854 20.1805 20.6183 22.5026ZM23.9871 12.6599C23.9871 6.4079 18.9119 1.33262 12.6599 1.33262C6.4079 1.33262 1.33262 6.4079 1.33262 12.6599C1.33262 18.9119 6.4079 23.9871 12.6599 23.9871C18.9119 23.9871 23.9871 18.9119 23.9871 12.6599Z" fill="white"/>
</svg>
