<svg width="35" height="36" viewBox="0 0 35 36" fill="none" xmlns="http://www.w3.org/2000/svg">
<path d="M17.5 0C7.83266 0 0 7.90261 0 17.6563C0 27.4099 7.83266 35.3126 17.5 35.3126C27.1673 35.3126 35 27.4099 35 17.6563C35 7.90261 27.1673 0 17.5 0ZM26.0948 12.096L23.2228 25.7511C23.0111 26.7194 22.4395 26.9543 21.6421 26.4987L17.2671 23.2451L15.1573 25.2955C14.9244 25.5304 14.7268 25.7298 14.2752 25.7298L14.5857 21.2374L22.6935 13.8474C23.0464 13.5341 22.6159 13.3561 22.1502 13.6694L12.13 20.0342L7.81149 18.6744C6.87298 18.3753 6.85181 17.7275 8.00907 17.2718L24.881 10.7077C25.6643 10.4229 26.3488 10.8999 26.0948 12.096Z" fill="black"/>
</svg>
