<svg width="36" height="37" viewBox="0 0 36 37" fill="none" xmlns="http://www.w3.org/2000/svg">
<path d="M18.0002 0.729004C8.45662 0.729004 0.720215 8.56247 0.720215 18.2258C0.720215 27.8891 8.45662 35.7226 18.0002 35.7226C27.5438 35.7226 35.2802 27.8891 35.2802 18.2258C35.2802 8.56247 27.5438 0.729004 18.0002 0.729004ZM24.6458 20.4694C24.6458 20.4694 26.174 21.9967 26.5502 22.7057C26.561 22.7215 26.5676 22.7337 26.57 22.7422C26.7224 23.001 26.7602 23.2057 26.6834 23.3564C26.5574 23.6079 26.1254 23.7318 25.9778 23.7428H23.2778C23.0906 23.7428 22.6982 23.6936 22.223 23.3618C21.8576 23.103 21.4976 22.6784 21.1466 22.2647C20.6228 21.6486 20.1692 21.1164 19.712 21.1164C19.6539 21.1162 19.5962 21.1254 19.541 21.1438C19.1954 21.2568 18.7526 21.7561 18.7526 23.0866C18.7526 23.5022 18.4286 23.7409 18.2 23.7409H16.9634C16.5422 23.7409 14.348 23.5915 12.404 21.5156C10.0244 18.9731 7.88241 13.8735 7.86441 13.8261C7.72941 13.4962 8.00841 13.3194 8.31261 13.3194H11.0396C11.4032 13.3194 11.522 13.5436 11.6048 13.7422C11.702 13.9737 12.0584 14.8941 12.6434 15.9293C13.592 17.6171 14.1734 18.3024 14.6396 18.3024C14.727 18.3013 14.8129 18.2788 14.8898 18.2367C15.4982 17.8941 15.3848 15.6979 15.3578 15.2422C15.3578 15.1566 15.356 14.2599 15.0446 13.8297C14.8214 13.5181 14.4416 13.3996 14.2112 13.3559C14.3045 13.2256 14.4273 13.1199 14.5694 13.0478C14.987 12.8364 15.7394 12.8054 16.4864 12.8054H16.9022C17.7122 12.8164 17.921 12.8692 18.2144 12.944C18.8084 13.0879 18.821 13.4762 18.7688 14.8048C18.7526 15.1821 18.7364 15.6086 18.7364 16.1116L18.731 16.4615C18.713 17.1377 18.6914 17.905 19.163 18.2203C19.2238 18.2609 19.2954 18.2819 19.3682 18.2805C19.532 18.2805 20.0252 18.2805 21.3608 15.9603C21.7712 15.2127 22.1291 14.4368 22.4318 13.6384C22.4588 13.591 22.538 13.4452 22.6316 13.3887C22.7014 13.3551 22.7775 13.3371 22.8548 13.3358H26.0606C26.4098 13.3358 26.6492 13.3887 26.6942 13.5254C26.7734 13.7422 26.6798 14.4038 25.2164 16.4105L24.563 17.2835C23.2364 19.0441 23.2364 19.1335 24.6458 20.4694Z" fill="black"/>
</svg>
